<svg xmlns="http://www.w3.org/2000/svg" width="80px" height="36px" viewBox="0 0 180 80">
  <path d="m 35.36308,70.96658 c -1.58012,-0.4403 -3.21128,-1.75618 -3.89256,-3.14005 -1.23469,-2.50803 -0.78911,-5.28048 1.1618,-7.22883 1.39467,-1.39284 3.29929,-2.01045 5.26122,-1.70604 4.10588,0.63705 6.3791,5.11195 4.53353,8.92439 -0.40718,0.84113 -1.62642,2.08833 -2.49307,2.55023 -1.39137,0.7416 -3.20794,0.9802 -4.57092,0.6003 z m 110.74989,-47.44772 0,-12.37437 12.2481,0 12.24809,0 0,12.37437 0,12.37437 -12.24809,0 -12.2481,0 0,-12.37437 z m -24.4962,0 0,-12.37437 10.85914,0 10.85914,0 0,12.37437 0,12.37437 -10.85914,0 -10.85914,0 0,-12.37437 z m -36.11296,5.3033 0,-7.07107 16.66752,0 16.66752,0 0,7.07107 0,7.07107 -16.66752,0 -16.66752,0 0,-7.07107 z m 17.42513,-13.63706 0,-4.04061 8.08122,0 8.08122,0 0,4.04061 0,4.04061 -8.08122,0 -8.08122,0 0,-4.04061 z m -17.67767,3.09121 c 0,-0.67591 0.1455,-1.04028 0.50508,-1.26484 0.72367,-0.45194 0.72367,-2.32157 0,-2.51081 -0.43853,-0.11468 -0.50508,-0.34447 -0.50508,-1.74413 l 0,-1.61204 8.33376,0 8.33376,0 0,4.04061 0,4.04061 -8.33376,0 -8.33376,0 0,-0.9494 z m -36.11295,0 c 0,-0.67591 0.1455,-1.04028 0.50508,-1.26484 0.72367,-0.45194 0.72367,-2.32157 0,-2.51081 -0.43854,-0.11468 -0.50508,-0.34447 -0.50508,-1.74413 l 0,-1.61204 8.33376,0 8.33376,0 0,4.04061 0,4.04061 -8.33376,0 -8.33376,0 0,-0.9494 z m 17.67767,-3.09121 0,-4.04061 8.08122,0 8.08122,0 0,4.04061 0,4.04061 -8.08122,0 -8.08122,0 0,-4.04061 z m -17.42513,13.63706 0,-7.07107 16.66752,0 16.66751,0 0,7.07107 0,7.07107 -16.66751,0 -16.66752,0 0,-7.07107 z m -28.03174,5.17072 c 0,-1.8928 0.003,-1.90093 0.72884,-2.04612 0.4346,-0.0869 0.84023,-0.39023 1.00474,-0.7513 l 0.2759,-0.60553 11.62217,0 11.62217,0 0,2.65165 0,2.65165 -12.62691,0 -12.62691,0 0,-1.90035 z m 2.47836,-8.81676 c 0.0603,-2.00532 0.0366,-3.93724 -0.0527,-4.29315 -0.1471,-0.5861 -0.281,-0.64711 -1.42029,-0.64711 -1.25504,0 -1.39414,-0.1087 -1.1046,-0.86323 0.13374,-0.3485 0.9069,-0.39946 6.06092,-0.39946 l 5.90763,0 0,4.9245 0,4.92449 -4.75032,0 -4.75031,0 0.10969,-3.64604 z m 10.40109,-1.27845 0,-4.9245 6.18718,0 6.18719,0 0,4.9245 0,4.92449 -6.18719,0 -6.18718,0 0,-4.92449 z m -12.7464,-6.50286 c 0.0919,-0.31252 0.60378,-1.48426 1.13753,-2.60387 0.70596,-1.48085 1.16191,-2.12289 1.67299,-2.35575 1.44419,-0.65802 6.09958,-1.05598 14.16589,-1.21096 l 8.14436,-0.15647 0,3.44763 0,3.44763 -12.64393,0 -12.64392,0 0.16708,-0.56821 z m -12.7599,19.40718 c 8e-5,-0.88129 0.95259,-6.40414 1.63758,-9.49506 1.36166,-6.14428 3.07832,-11.45698 4.83076,-14.95022 l 0.84881,-1.69197 1.32903,0.38907 c 0.73096,0.21399 1.41644,0.47186 1.52329,0.57304 0.10684,0.10118 -0.1368,0.91476 -0.54144,1.80797 -1.76227,3.89011 -3.4172,11.28635 -4.34706,19.42795 -0.16656,1.45841 -0.39127,2.82052 -0.49935,3.02693 -0.11322,0.21622 -1.16818,0.60139 -2.48909,0.90876 l -2.29258,0.53348 5e-5,-0.52995 z m 122.5294,34.16459 c -1.58012,-0.4403 -3.21128,-1.75618 -3.89256,-3.14005 -1.23469,-2.50803 -0.78911,-5.28048 1.1618,-7.22883 1.39467,-1.39284 3.29929,-2.01045 5.26122,-1.70604 4.10588,0.63705 6.3791,5.11195 4.53353,8.92439 -0.40718,0.84113 -1.62642,2.08833 -2.49307,2.55023 -1.39137,0.7416 -3.20794,0.9802 -4.57092,0.6003 z m -90.63404,4.5006 c 2.24028,-0.7634 5.29008,-3.5844 6.22548,-5.7585 l 0.73297,-1.70364 37.14325,-0.13266 37.14325,-0.13266 0.92019,1.81586 c 1.27065,2.5076 2.68406,4.0186 4.91478,5.2543 3.26374,1.27974 6.78495,1.83855 9.86211,0.2307 2.30267,-1.2256 4.23284,-3.1353 5.17708,-5.122 l 0.84471,-1.77725 16.12271,0.0313 c 16.03248,0.0311 16.127,0.027 16.88914,-0.73516 0.69381,-0.69381 0.74306,-1.00361 0.51975,-3.26981 -0.13567,-1.37686 -0.37751,-2.84753 -0.53743,-3.26813 -0.15992,-0.42061 -0.14653,-4.21715 0.0297,-8.43675 0.17627,-4.2196 0.27868,-16.46542 0.22757,-27.21292 -0.0866,-18.20659 -0.13646,-19.58445 -0.73032,-20.17857 -0.58832,-0.58858 -1.80601,-0.64594 -15.82191,-0.74528 -14.49742,-0.10275 -15.21602,-0.13911 -15.88048,-0.80357 -1.00322,-1.00322 -6.26995,-0.98701 -8.5028,0.0262 -1.38084,0.62656 -2.34549,0.70643 -8.53206,0.70643 -6.23114,0 -7.02387,-0.0667 -7.43144,-0.625 -0.39038,-0.53476 -1.19529,-0.6415 -5.57509,-0.73927 -2.81536,-0.0629 -5.27152,-0.26374 -5.45813,-0.44643 -0.45583,-0.44625 -2.69642,-0.42549 -2.69642,0.025 0,0.22092 -1.88871,0.35714 -4.95184,0.35714 -4.41105,0 -5.05101,0.078 -5.8599,0.71429 -0.85434,0.67202 -1.44885,0.71428 -10.04817,0.71428 -8.66391,0 -9.17731,-0.0372 -9.85438,-0.71428 -1.00693,-1.00693 -6.08135,-1.02276 -8.50522,-0.0265 -1.5392,0.63262 -2.9618,0.70343 -17.74478,0.88328 -16.10412,0.19593 -24.36354,0.58583 -28.03572,1.32346 -1.63334,0.32809 -2.24774,0.68648 -3.64676,2.12723 -3.68731,3.79731 -6.82834,12.72281 -8.9835,25.52738 -1.24742,7.41139 -2.21505,17.96272 -1.69499,18.48278 0.61286,0.61285 0.47338,1.32723 -0.39671,2.03178 -0.70106,0.56768 -0.79457,0.98288 -0.80357,3.56788 -0.008,2.38157 0.10601,3.01045 0.61482,3.38274 0.43415,0.31767 0.625,0.9458 0.625,2.05704 0,1.3598 -0.13391,1.66075 -0.89286,2.00655 -1.04598,0.47658 -1.20492,1.84475 -0.3174,2.73227 0.50675,0.50675 1.75981,0.56309 10.49652,0.47193 l 9.92108,-0.10351 0.4038,1.11744 c 0.99662,2.75803 3.68623,5.32413 6.71125,6.40323 1.85493,0.6616 5.34431,0.634 7.37667,-0.058 z"/>
</svg>
