
<svg xmlns="http://www.w3.org/2000/svg" width="80px" height="36px" style="shape-rendering:geometricPrecision; text-rendering:geometricPrecision; image-rendering:optimizeQuality; fill-rule:evenodd; clip-rule:evenodd"
viewBox="900 -1100 5 1550">
 <path d="m 35.36308,70.96658 -25,11 -25,25 0,14 11,25 25,25 14,0 25,-11 25,-25 0,-14 -11,-25 -25,-25zm129 -480l-574 0c-15,0 -27,12 -27,27l0 0c0,15 12,27 27,27l574 0 0 -55zm792 -448l-618 0 -46 366 658 0 5 -366zm-792 366l-601 0c21,-206 79,-362 162,-366l510 0 -70 366zm-129 633c-6,0 -11,5 -11,11 0,6 5,11 11,11 6,0 11,-5 11,-11 0,-6 -5,-11 -11,-11zm75 -10l61 61c14,-20 24,-43 28,-68l-86 0c-1,3 -2,5 -3,8zm-47 43l0 86c25,-4 48,-14 68,-28l-61 -61c-2,1 -5,2 -8,3zm47 -114c1,2 2,5 3,8l86 0c-4,-25 -14,-48 -28,-68l-61 61zm-111 -40c2,-1 5,-2 8,-3l0 -86c-25,4 -48,14 -68,28l61 61zm-61 211c20,14 43,24 68,28l0 -86c-3,-1 -5,-2 -8,-3l-61 61zm142 -136c0,6 5,11 11,11 6,0 11,-5 11,-11 0,-6 -5,-11 -11,-11 -6,0 -11,5 -11,11zm-92 0c0,-6 -5,-11 -11,-11 -6,0 -11,5 -11,11 0,6 5,11 11,11 6,0 11,-5 11,-11zm142 -136c-20,-14 -43,-24 -68,-28l0 86c3,1 5,2 8,3l61 -61zm-96 90c6,0 11,-5 11,-11 0,-6 -5,-11 -11,-11 -6,0 -11,5 -11,11 0,6 5,11 11,11zm0 -226c-150,0 -272,122 -272,272 0,150 122,272 272,272 150,0 272,-122 272,-272 0,-150 -122,-272 -272,-272zm0 467c-107,0 -194,-87 -194,-194 0,-107 87,-194 194,-194 107,0 194,87 194,194 0,107 -87,194 -194,194zm-78 -166l-86 0c4,25 14,48 28,68l61 -61c-1,-2 -2,-5 -3,-8zm3 -64l-61 -61c-14,20 -24,43 -28,68l86 0c1,-3 2,-5 3,-8zm2040 11c-14,0 -25,11 -25,25 0,14 11,25 25,25 14,0 25,-11 25,-25 0,-14 -11,-25 -25,-25zm28 103l0 86c25,-4 48,-14 68,-28l-61 -61c-2,1 -5,2 -8,3zm68 -214c-20,-14 -43,-24 -68,-28l0 86c3,1 5,2 8,3l61 -61zm-21 171l61 61c14,-20 24,-43 28,-68l-86 0c-1,3 -2,5 -3,8zm432 -250c-3,-37 1,-103 -30,-157 -47,-106 -486,-207 -528,-271 -218,-211 -400,-365 -774,-378 0,0 -1136,0 -1507,0 -74,5 -142,63 -167,129 -30,81 -108,294 -108,702 0,10 -30,1 -35,11 -85,147 61,216 132,216 41,0 255,33 255,33l13 0c-5,-22 -8,-45 -8,-68 0,-158 128,-286 286,-286 158,0 286,128 286,286 0,24 -3,46 -8,68l1412 0c-6,-23 -9,-46 -9,-70 0,-157 127,-284 284,-284 157,0 284,127 284,284 0,24 -3,48 -9,70l84 0c0,0 37,-19 46,-31 8,-12 7,-24 20,-31 59,-32 101,-32 101,-125 0,-52 1,-69 -19,-99zm-879 -480c-13,1 -28,9 -29,108 -143,-1 -519,1 -519,1 0,0 -33,-361 -35,-367l129 0c74,0 186,20 242,35 209,61 279,181 324,236 -30,-12 -97,-15 -113,-11zm337 620c2,-1 5,-2 8,-3l0 -86c-25,4 -48,14 -68,28l61 61zm111 40c1,2 2,5 3,8l86 0c-4,-25 -14,-48 -28,-68l-61 61zm-75 -237c-150,0 -272,122 -272,272 0,150 122,272 272,272 150,0 272,-122 272,-272 0,-150 -122,-272 -272,-272zm0 467c-107,0 -194,-87 -194,-194 0,-107 87,-194 194,-194 107,0 194,87 194,194 0,107 -87,194 -194,194zm0 -149c-6,0 -11,5 -11,11 0,6 5,11 11,11 6,0 11,-5 11,-11 0,-6 -5,-11 -11,-11zm-46 -46c0,-6 -5,-11 -11,-11 -6,0 -11,5 -11,11 0,6 5,11 11,11 6,0 11,-5 11,-11zm-29 -36l-61 -61c-14,20 -24,43 -28,68l86 0c1,-3 2,-5 3,-8zm121 36c0,6 5,11 11,11 6,0 11,-5 11,-11 0,-6 -5,-11 -11,-11 -6,0 -11,5 -11,11zm-46 -46c6,0 11,-5 11,-11 0,-6 -5,-11 -11,-11 -6,0 -11,5 -11,11 0,6 5,11 11,11zm-96 182c20,14 43,24 68,28l0 -86c-3,-1 -5,-2 -8,-3l-61 61zm18 -108l-86 0c4,25 14,48 28,68l61 -61c-1,-2 -2,-5 -3,-8z"/>
</svg>
